# xmcd
#
# Track frame offsets: 
#        150
#        12036
#        23918
#        40589
#        68765
#        85274
#        102174
#        126351
#
# Disc length: 1894 seconds
#
# Revision: 0
# Processed by: cddbd v1.5.2PL0 Copyright (c) Steve Scherf et al.
# Submitted via: ExactAudioCopy v0.99pb3
#
DISCID=59076408
DTITLE=Al Hudson And The Soul Partners - Cherish
DYEAR=1977
DGENRE=R&B
TTITLE0=If You Feel Like Dancin'
TTITLE1=I Like Everything About You
TTITLE2=Survivors Of Love
TTITLE3=Cheating Is A No No
TTITLE4=Why Must We Say Goodbye
TTITLE5=Tripped, Slipped, Stumbled And Fell
TTITLE6=Cherish
TTITLE7=If You Get Caught
EXTD=
EXTT0=
EXTT1=
EXTT2=
EXTT3=
EXTT4=
EXTT5=
EXTT6=
EXTT7=
PLAYORDER=
